<?xml version="1.0" encoding="UTF-8"?>
<svg width="212px" height="54px" viewBox="0 0 212 54" version="1.1" xmlns="http://www.w3.org/2000/svg" xmlns:xlink="http://www.w3.org/1999/xlink">
    <!-- Generator: Sketch 49.3 (51167) - http://www.bohemiancoding.com/sketch -->
    <title>Page 1</title>
    <desc>Created with Sketch.</desc>
    <defs>
        <polygon id="path-1" points="0.000244803695 0.174853844 56.9024157 0.174853844 56.9024157 49.9998498 0.000244803695 49.9998498"></polygon>
        <polygon id="path-3" points="0.183776309 0.0150484985 33.9120684 0.0150484985 33.9120684 12.607632 0.183776309 12.607632"></polygon>
        <polygon id="path-5" points="0 53.8833333 211.553968 53.8833333 211.553968 0.0150484985 0 0.0150484985"></polygon>
    </defs>
    <g id="Page-1" stroke="none" stroke-width="1" fill="none" fill-rule="evenodd">
        <g id="Zakuski" transform="translate(-380.000000, -42.000000)">
            <g id="Head" transform="translate(380.000000, 42.000000)">
                <g id="Page-1">
                    <polygon id="Fill-1" fill="#2497BA" points="0.883333333 23.8132958 1.28041573 31.8 2.74942969 30.5501646 8.0250893 28.5537394 11.4833333 28.3510363 11.0466382 21.6211918 9.25165391 20.8164001 4.92288309 20.3166667"></polygon>
                    <polygon id="Fill-2" fill="#FFDE00" points="51.2289313 9.71666667 49.4666667 12.9734174 50.3480436 30.0909734 55.1232281 31.8 55.65 21.1925343 53.3091178 13.5158031"></polygon>
                    <polygon id="Fill-3" fill="#D8D7D7" points="13.5053634 30.2534084 11.4833333 26.4307444 12.4943484 7.95 33.3687205 22.8534343 46.7526336 11.6507159 49.2215721 11.4588053 49.4666667 28.5053218 37.9739693 37.1 14.2853865 35.6866637"></polygon>
                    <polygon id="Fill-4" fill="#0A6C94" points="12.3666667 22.0426337 0.883333333 22.0833333 5.43679941 9.34484262 10.733868 6.18333333"></polygon>
                    <polygon id="Fill-5" fill="#C6E8DB" points="32.6833333 35.2027037 22.4968705 27.3833333 21.2 28.6483412 22.0214334 38.2157406 26.9416667 40.6333333 31.7560832 36.7875701"></polygon>
                    <g id="Group-64">
                        <path d="M42.3707215,15.4880117 C43.401345,13.5608331 49.2580286,11.6681203 48.4815113,9.76230078 C46.0182965,3.71377526 41.2867307,1.18951099 34.3034605,1.18951099 C26.268024,1.18951099 20.0588231,5.03513051 18.5087261,12.5472439 C18.2869339,13.6205416 22.7340379,15.7724769 23.3744443,16.7166488 C24.9230725,18.9996517 27.9346476,18.9287781 28.4511834,19.9307168 C29.3124028,21.6006147 30.2132804,24.590897 32.7430818,23.933132 C36.1429155,23.050125 36.9772065,20.3889679 38.2002457,19.1535347 C39.332218,18.0103343 41.2255298,17.6282966 42.3707215,15.4880117" id="Fill-6" fill="#FFDE00"></path>
                        <path d="M42.3707215,15.4880117 C42.3707215,15.4880117 39.3312388,10.1812316 32.8033035,11.5040431 C26.6366984,12.7535539 26.4668046,18.2190715 26.4668046,18.2190715 L33.5264536,24.0263356 L42.3707215,15.4880117 Z" id="Fill-8" fill="#F05A28"></path>
                        <path d="M27.6495002,18.2617413 L25.2837173,18.1826153 C25.352752,15.9709715 26.9635603,11.489917 32.5666273,10.3544835 C38.3958928,9.17293362 42.2021007,12.816612 43.3996804,14.9088387 L41.3413709,16.0670877 L42.3705256,15.4879632 L41.3443085,16.071942 C41.2346365,15.8850494 38.6113201,11.5258392 33.0405672,12.6535057 C27.9045857,13.6942793 27.6573339,18.0758195 27.6495002,18.2617413" id="Fill-10" fill="#231F20"></path>
                        <polygon id="Fill-12" fill="#231F20" points="32.8033035 25.5181758 9.27326189 6.6682324 10.7601995 4.84153886 34.5619732 23.9099282"></polygon>
                        <polygon id="Fill-14" fill="#231F20" points="34.6546559 38.4916805 22.5633118 28.9315151 22.5633118 38.0450799 20.1965497 38.0450799 20.2171132 26.4946292 20.2499169 24.1004616 36.1303326 36.6567346"></polygon>
                        <polygon id="Fill-16" fill="#878787" points="16.2838522 51.2339238 29.5850162 52.7096475 37.3790762 51.2266423 44.1488776 47.7829633 49.275067 43.5771507 51.0004434 41.710166 52.4198152 38.5766803 55.4260046 29.0723399 50.4045912 22.263137 40.2902818 32.2985438 38.1174042 29.7330175"></polygon>
                        <polygon id="Fill-18" fill="#25C5E0" points="32.3600619 44.9824863 29.3431012 43.9679262 18.5027039 34.7698956 11.8626485 28.7742825 9.27360462 28.6291373 2.90283326 30.901946 1.79876859 31.4106824 4.63751224 38.8519222 12.5294938 47.6237405 22.1086624 52.5455704 26.3711843 51.6931457 32.8031566 45.7800567"></polygon>
                        <polygon id="Fill-20" fill="#70C5A4" points="30.4403603 44.1401102 27.2016074 42.1852617 23.3949099 43.652733 20.3010808 45.4439897 14.4840554 43.2464235 5.74652194 40.6508003 11.621321 46.9473833 18.1179215 51.2143608 24.7153811 52.971637 42.3079538 49.6512587 49.7269746 41.6745836 33.2707806 46.0915606"></polygon>
                        <polygon id="Fill-22" fill="#231F20" points="33.0672508 25.2232738 31.1293848 23.7897829 49.0725164 8.02866521 50.6426873 9.78448518"></polygon>
                        <path d="M35.751964,46.9512668 C31.1305598,46.9517522 25.124546,44.1949644 16.7596037,34.5163527 C13.9619871,31.2789837 11.1731834,29.6785031 8.49552055,29.7600563 C5.07610254,29.8629686 2.89734965,32.6663582 2.87629654,32.6949989 L0.988370439,31.2789837 C1.10440739,31.126557 3.88439815,27.5508396 8.42403788,27.4144322 C11.8640194,27.3047238 15.270218,29.1862716 18.5569524,32.9886873 C31.9320471,48.4648545 38.1006106,44.8881662 43.0564166,42.0143884 C45.7115575,40.4745872 48.4562965,38.8833298 51.5961487,40.6954603 L50.4054236,42.724095 C48.5498115,41.6517681 46.9385136,42.4818627 44.2515483,44.0401105 C41.9259132,45.3881647 39.2306245,46.9507813 35.751964,46.9512668" id="Fill-24" fill="#231F20"></path>
                        <g id="Group-28" transform="translate(0.000000, 3.883483)">
                            <mask id="mask-2" fill="white">
                                <use xlink:href="#path-1"></use>
                            </mask>
                            <g id="Clip-27"></g>
                            <path d="M28.4513303,49.9999469 C12.7633303,49.9999469 0.000244803695,37.345616 0.000244803695,21.7912938 C0.000244803695,13.7087938 3.70510393,5.62823553 9.91136721,0.174853844 L11.7150808,1.72242201 C6.09291917,6.662213 2.36700693,14.4806361 2.36700693,21.7912938 C2.36700693,36.0514451 14.0681339,47.6528666 28.4513303,47.6528666 C42.834037,47.6528666 54.535164,36.0514451 54.535164,21.7912938 C54.535164,15.8694669 52.5718383,10.2981244 48.8562079,5.67872081 L50.7064342,4.21561841 C54.7598938,9.25443823 56.9024157,15.3320899 56.9024157,21.7912938 C56.9024157,37.345616 44.1393303,49.9999469 28.4513303,49.9999469" id="Fill-26" fill="#231F20" mask="url(#mask-2)"></path>
                        </g>
                        <polygon id="Fill-29" fill="#231F20" points="26.9399612 42.3405525 25.2757857 40.6716254 38.1979935 28.0041877 40.3659751 30.5634034 50.5831021 20.4265406 56.4074716 28.991078 54.4446356 30.30321 50.2266679 24.100316 40.2146864 34.0337813 38.0364231 31.4624298"></polygon>
                        <g id="Group-33" transform="translate(17.136259, 0.000000)">
                            <mask id="mask-4" fill="white">
                                <use xlink:href="#path-3"></use>
                            </mask>
                            <g id="Clip-32"></g>
                            <path d="M0.190359353,12.607632 C-0.0240886836,8.45230471 4.99732471,0.703298859 15.7681977,0.0518445045 C26.8029691,-0.622910751 33.6266273,8.15861628 33.9120684,8.53191613 L32.0251215,9.94987303 C31.9629413,9.86783444 25.649454,1.80378099 15.9126319,2.39407048 C6.82845635,2.94358339 2.38673811,9.25715667 2.55369423,12.4872441 L0.190359353,12.607632 Z" id="Fill-31" fill="#231F20" mask="url(#mask-4)"></path>
                        </g>
                        <mask id="mask-6" fill="white">
                            <use xlink:href="#path-5"></use>
                        </mask>
                        <g id="Clip-35"></g>
                        <polygon id="Fill-34" fill="#231F20" mask="url(#mask-6)" points="10.6793164 29.228553 13.0460785 29.228553 13.0460785 7.23201712 10.6793164 7.23201712"></polygon>
                        <path d="M19.3783178,46.1131139 C18.0852647,46.1131139 16.7270938,45.782047 15.3645164,44.9563213 C10.4023455,41.9480779 6.83604527,42.834483 6.80128314,42.8446772 L6.19416998,40.5762374 C6.37924157,40.5276938 10.7842393,39.428668 16.5993062,42.9539001 C21.0092,45.6276785 25.1591122,40.8024503 25.2002393,40.7529359 L27.0157035,42.259242 C25.6541053,43.8718585 22.7399621,46.1131139 19.3783178,46.1131139" id="Fill-36" fill="#231F20" mask="url(#mask-6)"></path>
                        <path d="M2.05605727,24.0547336 L0.311096536,22.468816 C4.40225589,18.0416448 10.0704406,19.7498921 12.4954661,21.2722177 L11.2298309,23.2552214 L11.8624037,22.2639623 L11.232279,23.2566777 C11.0134245,23.1212412 5.82211732,19.9790177 2.05605727,24.0547336" id="Fill-37" fill="#231F20" mask="url(#mask-6)"></path>
                        <polygon id="Fill-38" fill="#231F20" mask="url(#mask-6)" points="48.6743187 22.9363389 51.0410808 22.9363389 51.0410808 8.90676937 48.6743187 8.90676937"></polygon>
                        <path d="M60.0353155,6.52973767 L59.6064194,6.11080689 C59.1217081,5.6355656 58.6507058,5.39430419 58.2506965,5.41420704 C57.8364887,5.43362446 57.5921746,5.71808962 57.5818928,5.73022551 L56.8430753,5.14333407 C56.8935048,5.08022746 57.3566734,4.52780194 58.1801931,4.47780209 C58.733939,4.44187986 59.3033524,4.64867536 59.8673801,5.08702356 C60.4255326,4.46178272 61.3993617,3.83799818 62.5347612,4.36954998 L62.1303455,5.21857656 C61.1276296,4.74673332 60.3765718,5.96614713 60.3457266,6.01760329 L60.0353155,6.52973767 Z" id="Fill-39" fill="#231F20" mask="url(#mask-6)"></path>
                        <path d="M56.8332831,9.65856323 L56.3784379,9.21390437 C55.8839344,8.72992524 55.4408397,8.49691623 55.0839159,8.52895497 C54.7735048,8.56099371 54.6060591,8.8061386 54.5996942,8.81681818 L53.7972277,8.31827599 C53.8368859,8.25371308 54.2089875,7.68769536 54.9600453,7.59837524 C55.4893109,7.53526863 56.0523594,7.72992824 56.6296065,8.18089776 C57.0007289,7.74546218 57.673939,7.1881823 58.6340591,7.3046868 L58.519491,8.23672284 C57.6514171,8.12749986 57.1353709,9.08817659 57.1299852,9.09837074 L56.8332831,9.65856323 Z" id="Fill-40" fill="#231F20" mask="url(#mask-6)"></path>
                        <path d="M82.828351,27.8254019 C82.828351,28.3802546 82.3490254,28.8550104 81.7894042,28.8550104 C81.2038337,28.8550104 80.6970901,28.3802546 80.6970901,27.8254019 L80.6970901,14.96379 L76.4091085,24.0487142 C76.1956397,24.4715285 75.8225589,24.6822074 75.3701617,24.6822074 C74.9437136,24.6822074 74.5711224,24.4715285 74.3581432,24.0487142 L70.0691824,14.96379 L70.0691824,27.8254019 C70.0691824,28.3802546 69.5629284,28.8550104 68.9504296,28.8550104 C68.3912979,28.8550104 67.9384111,28.3802546 67.9384111,27.8254019 L67.9384111,10.817686 C67.9384111,10.1837073 68.4177367,9.70846599 69.057164,9.70846599 C69.5898568,9.70846599 69.9629376,9.94632935 70.2023557,10.3953571 L75.3966005,21.4341589 L80.5908453,10.3686582 C80.8571917,9.89341689 81.2567113,9.70846599 81.7095982,9.70846599 C82.3490254,9.70846599 82.828351,10.2099208 82.828351,10.817686 L82.828351,27.8254019 Z" id="Fill-41" fill="#231F20" mask="url(#mask-6)"></path>
                        <path d="M88.0476637,16.4427662 L88.0476637,22.0946909 C88.0476637,24.8674981 89.2995898,26.7951623 92.0433497,26.7951623 C94.7871095,26.7951623 96.038546,24.8674981 96.038546,22.0946909 L96.038546,16.4427662 C96.038546,13.6427746 94.9731603,11.7680229 92.0433497,11.7680229 C89.1130494,11.7680229 88.0476637,13.6427746 88.0476637,16.4427662 M85.9164028,22.0946909 L85.9164028,16.4427662 C85.9164028,12.7719034 87.6481441,9.70832036 92.0433497,9.70832036 C96.4385552,9.70832036 98.1698069,12.7719034 98.1698069,16.4427662 L98.1698069,22.0946909 C98.1698069,25.8446797 96.118352,28.8548648 92.0433497,28.8548648 C87.9678577,28.8548648 85.9164028,25.8446797 85.9164028,22.0946909" id="Fill-42" fill="#231F20" mask="url(#mask-6)"></path>
                        <path d="M111.140486,28.2477792 L103.469317,14.1716079 L103.469317,27.772538 C103.469317,28.3536042 102.963063,28.855059 102.377493,28.855059 C101.790943,28.855059 101.338056,28.3536042 101.338056,27.772538 L101.338056,10.8701615 C101.338056,10.2099693 101.817872,9.70851453 102.483738,9.70851453 C102.936135,9.70851453 103.389022,9.9463779 103.602491,10.3420078 L111.273659,24.3919656 L111.273659,10.7910356 C111.273659,10.2099693 111.779913,9.70851453 112.365973,9.70851453 C112.951544,9.70851453 113.40443,10.2099693 113.40443,10.7910356 L113.40443,27.693412 C113.40443,28.3273907 112.925594,28.855059 112.2328,28.855059 C111.806352,28.855059 111.353955,28.6176811 111.140486,28.2477792" id="Fill-43" fill="#231F20" mask="url(#mask-6)"></path>
                        <path d="M120.595539,12.0321483 L116.972934,12.0321483 C116.360435,12.0321483 115.907548,11.556907 115.907548,11.0025398 C115.907548,10.5530266 116.386874,9.97244578 116.972934,9.97244578 L126.348915,9.97244578 C126.909026,9.97244578 127.44074,10.4214736 127.44074,11.0025398 C127.44074,11.556907 126.934976,12.0321483 126.348915,12.0321483 L122.7268,12.0321483 L122.7268,27.7986058 C122.7268,28.3534585 122.246985,28.8549133 121.660925,28.8549133 C121.074865,28.8549133 120.595539,28.3534585 120.595539,27.7986058 L120.595539,12.0321483 Z" id="Fill-44" fill="#231F20" mask="url(#mask-6)"></path>
                        <path d="M138.680412,28.5914675 L131.621742,28.5914675 C130.742897,28.5914675 129.943368,28.3006917 129.943368,27.3497237 L129.943368,11.2138498 C129.943368,10.6060847 130.476551,9.97259141 131.195784,9.97259141 L138.414555,9.97259141 C139.000126,9.97259141 139.479941,10.4478327 139.479941,11.0288989 C139.479941,11.6099651 139.000126,12.032294 138.414555,12.032294 L132.074629,12.032294 L132.074629,18.2123725 L137.908301,18.2123725 C138.440994,18.2123725 138.947248,18.6614003 138.947248,19.2419811 C138.947248,19.8235327 138.494361,20.272075 137.908301,20.272075 L132.074629,20.272075 L132.074629,26.5312795 L138.680412,26.5312795 C139.240033,26.5312795 139.746287,26.9803073 139.746287,27.5089465 C139.746287,28.1162262 139.266472,28.5914675 138.680412,28.5914675" id="Fill-45" fill="#231F20" mask="url(#mask-6)"></path>
                        <path d="M152.370765,28.2477792 L144.699596,14.1716079 L144.699596,27.772538 C144.699596,28.3536042 144.193832,28.855059 143.607772,28.855059 C143.021222,28.855059 142.568335,28.3536042 142.568335,27.772538 L142.568335,10.8701615 C142.568335,10.2099693 143.048151,9.70851453 143.714017,9.70851453 C144.166903,9.70851453 144.61979,9.9463779 144.83277,10.3420078 L152.503938,24.3919656 L152.503938,10.7910356 C152.503938,10.2099693 153.010192,9.70851453 153.596252,9.70851453 C154.182312,9.70851453 154.635199,10.2099693 154.635199,10.7910356 L154.635199,27.693412 C154.635199,28.3273907 154.155873,28.855059 153.462589,28.855059 C153.036631,28.855059 152.584234,28.6176811 152.370765,28.2477792" id="Fill-46" fill="#231F20" mask="url(#mask-6)"></path>
                        <path d="M167.286605,28.5914675 L160.227935,28.5914675 C159.3486,28.5914675 158.549561,28.3006917 158.549561,27.3497237 L158.549561,11.2138498 C158.549561,10.6060847 159.082254,9.97259141 159.801487,9.97259141 L167.020259,9.97259141 C167.605829,9.97259141 168.085644,10.4478327 168.085644,11.0288989 C168.085644,11.6099651 167.605829,12.032294 167.020259,12.032294 L160.680333,12.032294 L160.680333,18.2123725 L166.514005,18.2123725 C167.046697,18.2123725 167.552952,18.6614003 167.552952,19.2419811 C167.552952,19.8235327 167.099575,20.272075 166.514005,20.272075 L160.680333,20.272075 L160.680333,26.5312795 L167.286605,26.5312795 C167.846226,26.5312795 168.351991,26.9803073 168.351991,27.5089465 C168.351991,28.1162262 167.872176,28.5914675 167.286605,28.5914675" id="Fill-47" fill="#231F20" mask="url(#mask-6)"></path>
                        <path d="M172.559432,22.0944968 C172.559432,25.0522549 173.545501,26.900793 176.555118,26.900793 C177.833483,26.900793 178.765695,26.5313766 179.565224,25.9240969 L179.565224,20.2454732 L176.981076,20.2454732 C176.448383,20.2454732 175.969058,19.7969308 175.969058,19.2420781 C175.969058,18.6872254 176.448383,18.2386831 176.981076,18.2386831 L180.151284,18.2386831 C181.003691,18.2386831 181.669067,18.6080995 181.669067,19.453728 L181.669067,25.7653595 C181.669067,27.9046735 178.792624,28.8289426 176.421945,28.8289426 C172.320014,28.8289426 170.428171,26.1614748 170.428171,22.0944968 L170.428171,16.442572 C170.428171,12.3755939 172.320014,9.70812619 176.421945,9.70812619 C178.845991,9.70812619 181.136864,10.7382202 181.136864,11.9794786 C181.136864,12.4814188 180.736855,12.9037477 180.177723,12.9037477 C179.804642,12.9037477 179.64503,12.7192822 179.219072,12.4552053 C178.419543,11.9003526 177.594065,11.6362757 176.555118,11.6362757 C173.545501,11.6362757 172.559432,13.4848139 172.559432,16.442572 L172.559432,22.0944968 Z" id="Fill-48" fill="#231F20" mask="url(#mask-6)"></path>
                        <path d="M190.777723,12.0321483 L187.155118,12.0321483 L187.155118,18.3709642 L190.937335,18.3709642 C193.281575,18.3709642 194.56043,17.2879578 194.56043,15.2544688 C194.56043,13.696221 193.867635,12.0321483 190.777723,12.0321483 M192.562831,20.2724148 L196.824374,27.2180251 C196.90418,27.376277 196.957547,27.6141404 196.957547,27.8253048 C196.957547,28.3801575 196.238314,28.8291853 195.811866,28.8291853 C195.439275,28.8291853 195.119561,28.6442344 194.933021,28.327245 L190.218102,20.4039679 L187.155118,20.4039679 L187.155118,27.7461788 C187.155118,28.327245 186.648864,28.8549133 186.062804,28.8549133 C185.504162,28.8549133 185.024346,28.3534585 185.024346,27.7461788 L185.024346,11.2399177 C185.024346,10.5530266 185.583968,9.97244578 186.249344,9.97244578 L190.884457,9.97244578 C195.279173,9.97244578 196.691201,12.6399135 196.691201,15.2544688 C196.691201,18.0534895 195.092633,19.7699892 192.562831,20.2724148" id="Fill-49" fill="#231F20" mask="url(#mask-6)"></path>
                        <path d="M201.431922,16.4427662 L201.431922,22.0946909 C201.431922,24.8674981 202.683848,26.7951623 205.427119,26.7951623 C208.171368,26.7951623 209.422805,24.8674981 209.422805,22.0946909 L209.422805,16.4427662 C209.422805,13.6427746 208.357419,11.7680229 205.427119,11.7680229 C202.497308,11.7680229 201.431922,13.6427746 201.431922,16.4427662 M199.300661,22.0946909 L199.300661,16.4427662 C199.300661,12.7719034 201.032403,9.70832036 205.427119,9.70832036 C209.822324,9.70832036 211.553576,12.7719034 211.553576,16.4427662 L211.553576,22.0946909 C211.553576,25.8446797 209.502611,28.8548648 205.427119,28.8548648 C201.352116,28.8548648 199.300661,25.8446797 199.300661,22.0946909" id="Fill-50" fill="#231F20" mask="url(#mask-6)"></path>
                        <path d="M67.5156841,38.6552723 L66.6554439,38.6552723 L66.6554439,37.8513912 L67.5156841,37.8513912 L67.5156841,37.3101307 C67.5156841,36.6023658 67.7095686,36.0620762 68.0601275,35.714019 C68.3754346,35.401884 68.835176,35.2334379 69.4040998,35.2334379 C69.84034,35.2334379 70.1311667,35.2819814 70.4337441,35.3892627 L70.4337441,36.1946 C70.0949358,36.0979984 69.84034,36.0378044 69.5255224,36.0378044 C68.798945,36.0378044 68.4356564,36.4703274 68.4356564,37.3586742 L68.4356564,37.8630416 L70.4219935,37.8630416 L70.4219935,38.6552723 L68.4474069,38.6552723 L68.4474069,44.0455473 L67.5156841,44.0455473 L67.5156841,38.6552723 Z" id="Fill-51" fill="#231F20" mask="url(#mask-6)"></path>
                        <path d="M79.8166291,40.9487605 C79.8166291,39.6157548 78.8114651,38.5235251 77.4914836,38.5235251 C76.1352711,38.5235251 75.2030587,39.6157548 75.2030587,40.9487605 C75.2030587,42.2807954 76.1959824,43.3618601 77.515964,43.3618601 C78.8721764,43.3618601 79.8166291,42.2807954 79.8166291,40.9487605 M74.2463658,40.9487605 C74.2463658,39.1958532 75.6270587,37.7065373 77.515964,37.7065373 C79.3931187,37.7065373 80.7733219,39.1715814 80.7733219,40.9487605 C80.7733219,42.7011824 79.3803889,44.1900129 77.4914836,44.1900129 C75.6148185,44.1900129 74.2463658,42.7254542 74.2463658,40.9487605" id="Fill-52" fill="#231F20" mask="url(#mask-6)"></path>
                        <path d="M85.6024665,37.8394009 L86.5351686,37.8394009 L86.5351686,39.4597844 C86.9953995,38.4272632 87.9031316,37.6830907 89.08994,37.7311488 L89.08994,38.7272623 L89.0174781,38.7272623 C87.649515,38.7272623 86.5351686,39.700075 86.5351686,41.5728849 L86.5351686,44.045693 L85.6024665,44.045693 L85.6024665,37.8394009 Z" id="Fill-53" fill="#231F20" mask="url(#mask-6)"></path>
                        <path d="M100.760222,42.4012319 L100.760222,38.6551266 L99.8887206,38.6551266 L99.8887206,37.8395951 L100.760222,37.8395951 L100.760222,35.9662998 L101.692434,35.9662998 L101.692434,37.8395951 L103.678282,37.8395951 L103.678282,38.6551266 L101.692434,38.6551266 L101.692434,42.2808439 C101.692434,43.0376377 102.116924,43.3133651 102.746559,43.3133651 C103.060887,43.3133651 103.327233,43.2536565 103.654291,43.0978317 L103.654291,43.8895769 C103.327233,44.058023 102.975695,44.1536538 102.528194,44.1536538 C101.52352,44.1536538 100.760222,43.6619077 100.760222,42.4012319" id="Fill-54" fill="#231F20" mask="url(#mask-6)"></path>
                        <path d="M108.472028,37.8394009 L109.40424,37.8394009 L109.40424,39.4597844 C109.864961,38.4272632 110.772693,37.6830907 111.959501,37.7311488 L111.959501,38.7272623 L111.887039,38.7272623 C110.518587,38.7272623 109.40424,39.700075 109.40424,41.5728849 L109.40424,44.045693 L108.472028,44.045693 L108.472028,37.8394009 Z" id="Fill-55" fill="#231F20" mask="url(#mask-6)"></path>
                        <path d="M120.349805,41.7645833 L120.349805,41.1883715 C119.889574,41.0568185 119.28393,40.92478 118.521611,40.92478 C117.358794,40.92478 116.692438,41.4291474 116.692438,42.1975917 C116.692438,42.9776865 117.419505,43.4335103 118.267015,43.4335103 C119.417593,43.4335103 120.349805,42.7490464 120.349805,41.7645833 M115.748475,42.2208926 C115.748475,40.8878869 116.837851,40.1922579 118.424179,40.1922579 C119.223708,40.1922579 119.780392,40.3000246 120.337565,40.4563348 L120.337565,40.263617 C120.337565,39.1597368 119.659459,38.5830395 118.484401,38.5830395 C117.746563,38.5830395 117.164909,38.763136 116.584235,39.0276983 L116.305158,38.2713899 C116.995015,37.9587695 117.661371,37.7432362 118.581833,37.7432362 C119.465574,37.7432362 120.155921,37.9830413 120.603911,38.4272147 C121.039662,38.8597377 121.257537,39.4597359 121.257537,40.2519665 L121.257537,44.0456444 L120.337565,44.0456444 L120.337565,43.1213754 C119.901814,43.6738009 119.186988,44.1781683 118.085371,44.1781683 C116.910803,44.1781683 115.748475,43.5174907 115.748475,42.2208926" id="Fill-56" fill="#231F20" mask="url(#mask-6)"></path>
                        <polygon id="Fill-57" fill="#231F20" mask="url(#mask-6)" points="125.518394 37.8394009 126.548039 37.8394009 128.65433 42.9893855 130.773351 37.8394009 131.778515 37.8394009 129.054339 44.0937511 128.230819 44.0937511"></polygon>
                        <path d="M140.616369,40.5761403 C140.507186,39.4479883 139.853071,38.4873116 138.618281,38.4873116 C137.541145,38.4873116 136.717135,39.3756585 136.584452,40.5761403 L140.616369,40.5761403 Z M138.788175,43.3858406 C139.647436,43.3858406 140.25357,43.0372979 140.761782,42.5091442 L141.342456,43.0256475 C140.713311,43.7212765 139.950503,44.1897217 138.764184,44.1897217 C137.044193,44.1897217 135.639509,42.8814732 135.639509,40.9489547 C135.639509,39.1479892 136.911509,37.7067314 138.642761,37.7067314 C140.495436,37.7067314 141.561311,39.1712901 141.561311,40.9965274 C141.561311,41.0805077 141.561311,41.1766239 141.548581,41.3207982 L136.584452,41.3207982 C136.717135,42.6290467 137.686068,43.3858406 138.788175,43.3858406 Z" id="Fill-58" fill="#231F20" mask="url(#mask-6)"></path>
                        <polygon id="Fill-59" fill="#231F20" mask="url(#mask-6)" points="146.426882 44.0459842 147.359095 44.0459842 147.359095 35.2819329 146.426882 35.2819329"></polygon>
                        <polygon id="Fill-60" fill="#231F20" mask="url(#mask-6)" points="152.758485 44.0459842 153.690697 44.0459842 153.690697 35.2819329 152.758485 35.2819329"></polygon>
                        <path d="M163.594476,40.5761403 C163.485293,39.4479883 162.831178,38.4873116 161.596388,38.4873116 C160.518762,38.4873116 159.694753,39.3756585 159.562069,40.5761403 L163.594476,40.5761403 Z M161.765792,43.3858406 C162.625543,43.3858406 163.231187,43.0372979 163.7394,42.5091442 L164.320564,43.0256475 C163.690928,43.7212765 162.92812,44.1897217 161.741312,44.1897217 C160.021811,44.1897217 158.617617,42.8814732 158.617617,40.9489547 C158.617617,39.1479892 159.889127,37.7067314 161.620379,37.7067314 C163.473053,37.7067314 164.538928,39.1712901 164.538928,40.9965274 C164.538928,41.0805077 164.538928,41.1766239 164.526688,41.3207982 L159.562069,41.3207982 C159.694753,42.6290467 160.664176,43.3858406 161.765792,43.3858406 Z" id="Fill-61" fill="#231F20" mask="url(#mask-6)"></path>
                        <path d="M169.319602,37.8394009 L170.251814,37.8394009 L170.251814,39.4597844 C170.712535,38.4272632 171.620267,37.6830907 172.807075,37.7311488 L172.807075,38.7272623 L172.734613,38.7272623 C171.366161,38.7272623 170.251814,39.700075 170.251814,41.5728849 L170.251814,44.045693 L169.319602,44.045693 L169.319602,37.8394009 Z" id="Fill-62" fill="#231F20" mask="url(#mask-6)"></path>
                        <path d="M176.850204,43.253608 L177.322675,42.5934158 C178.000782,43.0977832 178.75135,43.3856464 179.490167,43.3856464 C180.240735,43.3856464 180.785179,43.0011815 180.785179,42.3769116 C180.785179,41.7526416 180.046851,41.5123511 179.223331,41.2841964 C178.243137,41.0084691 177.152782,40.6725478 177.152782,39.5079882 C177.152782,38.4390593 178.048763,37.7312945 179.284532,37.7312945 C180.046851,37.7312945 180.894361,37.9953713 181.536236,38.415273 L181.112726,39.1113874 C180.531562,38.7395439 179.865206,38.5113892 179.260052,38.5113892 C178.521234,38.5113892 178.048763,38.8953686 178.048763,39.4356583 C178.048763,40.0244915 178.823812,40.2516752 179.659571,40.5041017 C180.628015,40.7929358 181.66941,41.1647793 181.66941,42.3050671 C181.66941,43.4817626 180.688726,44.1662266 179.441696,44.1662266 C178.545225,44.1662266 177.552791,43.8176839 176.850204,43.253608" id="Fill-63" fill="#231F20" mask="url(#mask-6)"></path>
                    </g>
                </g>
            </g>
        </g>
    </g>
</svg>