<?xml version="1.0" encoding="UTF-8"?>
<svg width="18px" height="20px" viewBox="0 0 18 20" version="1.1" xmlns="http://www.w3.org/2000/svg" xmlns:xlink="http://www.w3.org/1999/xlink">
    <!-- Generator: Sketch 49.3 (51167) - http://www.bohemiancoding.com/sketch -->
    <title>ic-date-range-24px</title>
    <desc>Created with Sketch.</desc>
    <defs></defs>
    <g id="Page-1" stroke="none" stroke-width="1" fill="none" fill-rule="evenodd">
        <g id="Afisha" transform="translate(-1221.000000, -164.000000)">
            <g id="ic-date-range-24px" transform="translate(1218.000000, 161.000000)">
                <path d="M9,17 L7,17 L7,19 L9,19 L9,17 Z M13,17 L11,17 L11,19 L13,19 L13,17 Z M9,14 L7,14 L7,16 L9,16 L9,14 Z M13,14 L11,14 L11,16 L13,16 L13,14 Z M17,14 L15,14 L15,16 L17,16 L17,14 Z M13,11 L11,11 L11,13 L13,13 L13,11 Z M17,11 L15,11 L15,13 L17,13 L17,11 Z M19,5 L18,5 L18,3 L16,3 L16,5 L8,5 L8,3 L6,3 L6,5 L5,5 C3.89,5 3.01,5.9 3.01,7 L3,21 C3,22.1 3.89,23 5,23 L19,23 C20.1,23 21,22.1 21,21 L21,7 C21,5.9 20.1,5 19,5 Z M19,21 L5,21 L5,9 L19,9 L19,21 Z" id="Shape" fill="#24B8D1" fill-rule="nonzero"></path>
                <polygon id="Shape" points="0 0 24 0 24 24 0 24"></polygon>
            </g>
        </g>
    </g>
</svg>