<?xml version="1.0" encoding="UTF-8"?>
<svg width="29px" height="29px" viewBox="0 0 29 29" version="1.1" xmlns="http://www.w3.org/2000/svg" xmlns:xlink="http://www.w3.org/1999/xlink">
    <!-- Generator: Sketch 49.3 (51167) - http://www.bohemiancoding.com/sketch -->
    <title>Group 17</title>
    <desc>Created with Sketch.</desc>
    <defs></defs>
    <g id="Page-1" stroke="none" stroke-width="1" fill="none" fill-rule="evenodd">
        <g id="Group-17">
            <rect id="Rectangle-7-Copy-3" fill="#25C5E0" x="0" y="0" width="29" height="29" rx="3"></rect>
            <g id="Group-13" transform="translate(6.000000, 5.000000)">
                <path d="M16.9375484,16.1090577 C16.9375484,17.2063704 16.066487,18.0932104 14.9886503,18.0932104 L1.98785511,18.0932104 C0.911646522,18.0932104 0.0373288015,17.2063704 0.0373288015,16.1090577 L0.0373288015,2.88864563 C0.0373288015,1.79346551 0.911646522,0.904328861 1.98785511,0.904328861 L14.9886503,0.904328861 C16.066487,0.904328861 16.9375484,1.79346551 16.9375484,2.88864563 L16.9375484,16.1090577 Z" id="Combined-Shape" fill="#F2F2F2"></path>
                <path class="rect" d="M14.3422641,2.88864563 L12.3901097,2.88864563 C12.0335443,2.88864563 11.7421051,3.18261849 11.7421051,3.54844408 L11.7421051,5.53030015 C11.7421051,5.89612574 12.0335443,6.19255931 12.3901097,6.19255931 L14.3422641,6.19255931 C14.7004576,6.19255931 14.9918968,5.89612574 14.9918968,5.53030015 L14.9918968,3.54844408 C14.9918968,3.18261849 14.7004576,2.88864563 14.3422641,2.88864563 Z"  ></path>
                <path class="rect" d="M13.6926314,9.49876964 C13.6926314,12.4207811 11.3627456,14.7892968 8.49068518,14.7892968 C5.62025289,14.7892968 3.29199528,12.4207811 3.29199528,9.49876964 C3.29199528,9.04042134 3.35549321,8.59814968 3.46295125,8.17441537 L1.99110168,8.17441537 L1.99110168,15.4490952 C1.99110168,15.8149208 2.28254092,16.1090577 2.64236256,16.1090577 L14.3422641,16.1090577 C14.7004576,16.1090577 14.9918968,15.8149208 14.9918968,15.4490952 L14.9918968,8.17441537 L13.5216754,8.17441537 C13.6291335,8.59814968 13.6926314,9.04042134 13.6926314,9.49876964 Z" ></path>
                <path class="rect" d="M5.24252159,9.49876964 C5.24252159,11.325601 6.69646148,12.8074407 8.49068518,12.8074407 C10.286537,12.8074407 11.7421051,11.325601 11.7421051,9.49876964 C11.7421051,7.67193833 10.286537,6.19255931 8.49068518,6.19255931 C6.69646148,6.19255931 5.24252159,7.67193833 5.24252159,9.49876964 L5.24252159,9.49876964 Z" ></path>
            </g>
        </g>
    </g>
</svg>