<?xml version="1.0" encoding="UTF-8"?>
<svg width="29px" height="29px" viewBox="0 0 29 29" version="1.1" xmlns="http://www.w3.org/2000/svg" xmlns:xlink="http://www.w3.org/1999/xlink">
    <!-- Generator: Sketch 49.3 (51167) - http://www.bohemiancoding.com/sketch -->
    <title>Group 19</title>
    <desc>Created with Sketch.</desc>
    <defs></defs>
    <g id="Page-1" stroke="none" stroke-width="1" fill="none" fill-rule="evenodd">
        <g id="Group-19">
            <rect id="Rectangle-7" fill="#25C5E0" x="0" y="0" width="29" height="29" rx="3"></rect>
            <path d="M20.635591,23.0891696 C20.635591,23.0891696 19.2316499,24.1092575 16.1297315,24.1092575 C13.0261976,24.1092575 11.1149636,22.2813777 11.1149636,20.4945666 L11.1149636,12.5395302 L8.43632783,12.5395302 L8.43632783,9.77596355 C8.43632783,9.77596355 10.3491775,9.52049694 11.3266049,8.15811612 C12.3040323,6.79799893 12.5156736,5.35121712 12.5592943,4.67115853 L15.3639455,4.67115853 L15.3639455,9.09364133 L19.869805,9.09364133 L19.869805,12.5828625 L15.4059506,12.5828625 L15.4059506,19.4243555 C15.4059506,20.6725848 16.8955176,21.0058232 17.7033089,21.0058232 C18.5094845,21.0058232 19.7857947,20.5378989 20.635591,20.0701363 L20.635591,23.0891696 L20.635591,23.0891696 Z" id="Path" fill="#F2F2F2"></path>
        </g>
    </g>
</svg>