<?xml version="1.0" encoding="UTF-8"?>
<svg width="29px" height="29px" viewBox="0 0 29 29" version="1.1" xmlns="http://www.w3.org/2000/svg" xmlns:xlink="http://www.w3.org/1999/xlink">
    <!-- Generator: Sketch 49.3 (51167) - http://www.bohemiancoding.com/sketch -->
    <title>Group 16</title>
    <desc>Created with Sketch.</desc>
    <defs></defs>
    <g id="Page-1" stroke="none" stroke-width="1" fill="none" fill-rule="evenodd">
        <g id="Group-16">
            <rect id="Rectangle-7-Copy-4" fill="#25C5E0" x="0" y="0" width="29" height="29" rx="3"></rect>
            <path d="M23.3274457,9.96319794 C22.9513402,10.2849565 22.3018797,10.6067151 22.3018797,10.6067151 C22.3018797,10.6067151 22.680247,12.7586171 21.6571044,15.2322777 C20.6315384,17.7082019 19.3894856,19.3194201 16.2058367,21.0399393 C13.0223494,22.7628837 10.9188728,22.4661868 9.46049477,22.1694898 C8.00421693,21.8729545 7.08592503,21.4711605 5.95324654,20.6109817 C5.95324654,20.6109817 7.85833066,20.5013575 8.7037602,20.1795989 C9.75905273,19.7824938 11.1330979,18.8354888 11.1330979,18.8354888 C11.1330979,18.8354888 10.2716742,18.6734777 9.1915018,18.0299605 C8.11132945,17.3841797 7.73522397,16.307016 7.73522397,16.307016 L9.40798863,16.1472686 C9.40798863,16.1472686 8.2732099,15.7708595 7.19529935,14.6959595 C6.11496543,13.6189575 6.33145226,12.3820464 6.33145226,12.3820464 C6.33145226,12.3820464 6.70981955,12.596606 7.08592503,12.7062303 C7.46413075,12.8132676 8.05882331,12.7062303 8.05882331,12.7062303 C8.05882331,12.7062303 6.65505161,11.8982767 6.43856478,10.232408 C6.22433975,8.5642757 6.87153844,7.70393529 6.87153844,7.70393529 C6.87153844,7.70393529 8.56255909,9.55008579 10.2169062,10.4469676 C12.1038959,11.4693191 14.8022266,11.6290666 14.8022266,11.6290666 C14.8022266,11.6290666 14.5650604,7.88195348 17.555002,7.05815449 C20.0914522,6.35998687 21.2787371,8.08050601 21.2787371,8.08050601 C21.2787371,8.08050601 21.7640553,8.08050601 22.3018797,7.9184949 C22.8419659,7.7564838 23.5987004,7.37991307 23.5987004,7.37991307 C23.5987004,7.37991307 23.5987004,7.64912315 23.43682,7.97330704 C23.2751011,8.29506563 22.9513402,8.61908784 22.7896213,8.77883532 C22.6256406,8.94084642 22.0876547,9.26260501 22.0876547,9.26260501 C22.0876547,9.26260501 22.4637601,9.3720676 22.8967338,9.31741715 C23.3274457,9.26260501 24.0292507,9.10285753 24.0292507,9.10285753 C24.0292507,9.10285753 23.7056514,9.63917573 23.3274457,9.96319794 L23.3274457,9.96319794 Z" id="Path" fill="#F2F2F2"></path>
        </g>
    </g>
</svg>