<?xml version="1.0" encoding="UTF-8"?>
<svg width="29px" height="29px" viewBox="0 0 29 29" version="1.1" xmlns="http://www.w3.org/2000/svg" xmlns:xlink="http://www.w3.org/1999/xlink">
    <!-- Generator: Sketch 49.3 (51167) - http://www.bohemiancoding.com/sketch -->
    <title>Group 18</title>
    <desc>Created with Sketch.</desc>
    <defs></defs>
    <g id="Page-1" stroke="none" stroke-width="1" fill="none" fill-rule="evenodd">
        <g id="Group-18">
            <rect id="Rectangle-7-Copy-2" fill="#25C5E0" x="0" y="0" width="29" height="29" rx="3"></rect>
            <path d="M21.4533637,21.3299655 C20.9908058,21.3299655 20.5259685,21.3283486 20.0634105,21.3299655 C19.4730427,21.3315824 18.9580582,21.0906663 18.5410885,20.6314706 C18.0806472,20.1205345 17.6591187,19.5594749 17.214796,19.0275192 C17.0803107,18.8674475 16.9367077,18.7122264 16.7839871,18.5780248 C16.4285615,18.2675826 16.0729731,18.3306412 15.9044594,18.8043889 C15.7561348,19.2215456 15.7107094,19.6888258 15.6239289,20.1367033 C15.614974,20.183593 15.6218123,20.2369503 15.6218123,20.2886906 C15.6172534,20.9014906 15.3619592,21.2458874 14.8310189,21.2782251 C13.4409029,21.365537 12.0940957,21.1860626 10.8383021,20.4148078 C9.7741421,19.7615857 8.92636343,18.8383435 8.19027598,17.7614972 C6.96199823,15.9619026 6.00480776,13.977983 5.12755954,11.9374723 C4.89050063,11.3844972 4.66939761,10.8218207 4.43933976,10.2639949 L4.39603092,10.1475791 C4.19544261,9.58651951 4.36167691,9.266376 4.88594181,9.21301875 C5.02042715,9.19846677 5.15719191,9.20816809 5.29151443,9.20493432 C6.01620482,9.19361611 6.74317462,9.18714857 7.46802782,9.17421348 C7.97829061,9.16451216 8.32704074,9.3973438 8.52534963,9.96487093 C9.03121641,11.4184518 9.68524501,12.7831039 10.5102295,14.0361909 C10.6606708,14.2641719 10.8430238,14.4792178 11.0411699,14.6554584 C11.3010229,14.8834394 11.5266847,14.8025951 11.6406554,14.4468801 C11.720272,14.1946458 11.7704191,13.9197751 11.7954926,13.6513719 C11.8843897,12.6521361 11.8889485,11.6512835 11.7430661,10.6568983 C11.6611701,10.1071569 11.3648465,9.80641606 10.8975669,9.69808467 C10.6242002,9.6350261 10.5922884,9.51375962 10.7769208,9.26960978 C11.0229346,8.93814806 11.3510072,8.78777763 11.7157132,8.73280349 C12.6843007,8.58566682 13.6572843,8.57111485 14.621313,8.71663462 C15.5124005,8.84921931 15.6263711,9.23242139 15.653724,10.191235 C15.6719593,10.8250545 15.6218123,11.4604909 15.614974,12.0943103 C15.6081358,12.7103441 15.603577,13.3263778 15.6286505,13.9424115 C15.6354887,14.1461392 15.7061505,14.362802 15.7948848,14.5438932 C15.9135771,14.7799587 16.0843702,14.817147 16.2667232,14.6441402 C16.4946645,14.4242436 16.7133253,14.1849445 16.8933989,13.9181582 C17.7138246,12.6925583 18.3496179,11.3489257 18.8418082,9.91313057 C19.0446759,9.31973325 19.1882789,9.21301875 19.7488516,9.20978498 C20.7288362,9.20978498 21.708658,9.20170055 22.6886425,9.20331743 C22.8664367,9.20331743 23.0510692,9.2194863 23.2195829,9.27607732 C23.50223,9.37147362 23.6456702,9.64311054 23.5430966,9.9567865 C23.3768623,10.4644888 23.2151869,10.9948276 22.9528916,11.4394713 C22.3035846,12.5486554 21.5969667,13.6141836 20.9155852,14.7007312 C20.7812627,14.9157771 20.655895,15.1389074 20.5396449,15.3685053 C20.368689,15.7032008 20.4028802,16.0265781 20.6194244,16.3192345 C20.7653068,16.5132609 20.9224234,16.6992028 21.0819823,16.8770603 C21.8294668,17.7081399 22.6088631,18.5004143 23.1969516,19.4980332 C23.319877,19.700144 23.4292888,19.9200405 23.5113477,20.1480215 C23.6640683,20.5764964 23.5181859,20.9629323 23.137524,21.123004 C22.923422,21.208699 22.690922,21.2458874 22.4629807,21.279842 C22.294467,21.3040953 22.1187894,21.2863096 21.9479963,21.2895433 L21.4533637,21.2895433 L21.4533637,21.3299655 Z" id="Path" fill="#F2F2F2"></path>
        </g>
    </g>
</svg>