<?xml version="1.0" encoding="UTF-8"?>
<svg width="26px" height="27px" viewBox="0 0 26 27" version="1.1" xmlns="http://www.w3.org/2000/svg" xmlns:xlink="http://www.w3.org/1999/xlink">
    <!-- Generator: Sketch 49.3 (51167) - http://www.bohemiancoding.com/sketch -->
    <title>Fill 50</title>
    <desc>Created with Sketch.</desc>
    <defs></defs>
    <g id="Page-1" stroke="none" stroke-width="1" fill="none" fill-rule="evenodd">
        <g id="Main_page" transform="translate(-514.000000, -5104.000000)" fill="#000000">
            <g id="Group-11-Copy" transform="translate(480.000000, 5092.000000)">
                <g id="Group-6" transform="translate(34.000000, 12.000000)">
                    <path d="M12.8555161,0.528596624 C5.75281304,0.528596624 0,6.26843384 0,13.3470082 C0,20.4274593 5.75281304,26.1672965 12.8555161,26.1672965 C19.9540206,26.1672965 25.7108874,20.4274593 25.7108874,13.3470082 C25.7108874,6.26843384 19.9540206,0.528596624 12.8555161,0.528596624 Z M16.619109,10.7265598 L16.5006823,13.2777109 L14.1073928,13.2531681 L14.1073928,21.9372741 L10.5946965,21.9372741 L10.5946965,13.2531681 L8.79354015,13.3021093 L8.74257905,10.7265598 L10.4497758,10.7265598 C10.4497758,9.45307767 10.145457,6.60264892 11.5280663,5.56954175 C13.4823955,4.1065026 16.97048,5.07031248 16.97048,5.07031248 L16.5313748,7.73551533 C16.5313748,7.73551533 15.3245234,7.51130971 15.0998313,7.51130971 C14.7648199,7.51130971 14.1073928,7.64586196 14.1073928,8.46082702 L14.1073928,10.7265598 L16.619109,10.7265598 L16.619109,10.7265598 Z" id="Fill-50"></path>
                </g>
            </g>
        </g>
    </g>
</svg>