<?xml version="1.0" encoding="UTF-8"?>
<svg width="26px" height="26px" viewBox="0 0 26 26" version="1.1" xmlns="http://www.w3.org/2000/svg" xmlns:xlink="http://www.w3.org/1999/xlink">
    <!-- Generator: Sketch 49.3 (51167) - http://www.bohemiancoding.com/sketch -->
    <title>Fill 50</title>
    <desc>Created with Sketch.</desc>
    <defs></defs>
    <g id="Page-1" stroke="none" stroke-width="1" fill="none" fill-rule="evenodd">
        <g id="Main_page" transform="translate(-684.000000, -5105.000000)" fill="#FFFFFF">
            <path d="M696.855516,5105 C689.752813,5105 684,5110.73984 684,5117.81841 C684,5124.89886 689.752813,5130.6387 696.855516,5130.6387 C703.954021,5130.6387 709.710887,5124.89886 709.710887,5117.81841 C709.710887,5110.73984 703.954021,5105 696.855516,5105 Z M700.619109,5115.19796 L700.500682,5117.74911 L698.107393,5117.72457 L698.107393,5126.40868 L694.594696,5126.40868 L694.594696,5117.72457 L692.79354,5117.77351 L692.742579,5115.19796 L694.449776,5115.19796 C694.449776,5113.92448 694.145457,5111.07405 695.528066,5110.04095 C697.482395,5108.57791 700.97048,5109.54172 700.97048,5109.54172 L700.531375,5112.20692 C700.531375,5112.20692 699.324523,5111.98271 699.099831,5111.98271 C698.76482,5111.98271 698.107393,5112.11727 698.107393,5112.93223 L698.107393,5115.19796 L700.619109,5115.19796 L700.619109,5115.19796 Z" id="Fill-50"></path>
        </g>
    </g>
</svg>