<?xml version="1.0" encoding="UTF-8"?>
<svg width="60px" height="54px" viewBox="0 0 60 54" version="1.1" xmlns="http://www.w3.org/2000/svg" xmlns:xlink="http://www.w3.org/1999/xlink">
    <!-- Generator: Sketch 49.3 (51167) - http://www.bohemiancoding.com/sketch -->
    <title>Page 1</title>
    <desc>Created with Sketch.</desc>
    <defs>
        <polygon id="path-1" points="0.000244803695 0.174853844 56.9024157 0.174853844 56.9024157 49.9998498 0.000244803695 49.9998498"></polygon>
        <polygon id="path-3" points="0.183776309 0.0150484985 33.9120684 0.0150484985 33.9120684 12.607632 0.183776309 12.607632"></polygon>
        <polygon id="path-5" points="0 53.8833333 211.553968 53.8833333 211.553968 0.0150484985 0 0.0150484985"></polygon>
    </defs>
    <g id="Page-1" stroke="none" stroke-width="1" fill="none" fill-rule="evenodd">
        <g id="Zakuski" transform="translate(-380.000000, -42.000000)">
            <g id="Head" transform="translate(380.000000, 42.000000)">
                <g id="Page-1">
                    <polygon id="Fill-1" fill="#2497BA" points="0.883333333 23.8132958 1.28041573 31.8 2.74942969 30.5501646 8.0250893 28.5537394 11.4833333 28.3510363 11.0466382 21.6211918 9.25165391 20.8164001 4.92288309 20.3166667"></polygon>
                    <polygon id="Fill-2" fill="#FFDE00" points="51.2289313 9.71666667 49.4666667 12.9734174 50.3480436 30.0909734 55.1232281 31.8 55.65 21.1925343 53.3091178 13.5158031"></polygon>
                    <polygon id="Fill-3" fill="#D8D7D7" points="13.5053634 30.2534084 11.4833333 26.4307444 12.4943484 7.95 33.3687205 22.8534343 46.7526336 11.6507159 49.2215721 11.4588053 49.4666667 28.5053218 37.9739693 37.1 14.2853865 35.6866637"></polygon>
                    <polygon id="Fill-4" fill="#0A6C94" points="12.3666667 22.0426337 0.883333333 22.0833333 5.43679941 9.34484262 10.733868 6.18333333"></polygon>
                    <polygon id="Fill-5" fill="#C6E8DB" points="32.6833333 35.2027037 22.4968705 27.3833333 21.2 28.6483412 22.0214334 38.2157406 26.9416667 40.6333333 31.7560832 36.7875701"></polygon>
                    <g id="Group-64">
                        <path d="M42.3707215,15.4880117 C43.401345,13.5608331 49.2580286,11.6681203 48.4815113,9.76230078 C46.0182965,3.71377526 41.2867307,1.18951099 34.3034605,1.18951099 C26.268024,1.18951099 20.0588231,5.03513051 18.5087261,12.5472439 C18.2869339,13.6205416 22.7340379,15.7724769 23.3744443,16.7166488 C24.9230725,18.9996517 27.9346476,18.9287781 28.4511834,19.9307168 C29.3124028,21.6006147 30.2132804,24.590897 32.7430818,23.933132 C36.1429155,23.050125 36.9772065,20.3889679 38.2002457,19.1535347 C39.332218,18.0103343 41.2255298,17.6282966 42.3707215,15.4880117" id="Fill-6" fill="#FFDE00"></path>
                        <path d="M42.3707215,15.4880117 C42.3707215,15.4880117 39.3312388,10.1812316 32.8033035,11.5040431 C26.6366984,12.7535539 26.4668046,18.2190715 26.4668046,18.2190715 L33.5264536,24.0263356 L42.3707215,15.4880117 Z" id="Fill-8" fill="#F05A28"></path>
                        <path d="M27.6495002,18.2617413 L25.2837173,18.1826153 C25.352752,15.9709715 26.9635603,11.489917 32.5666273,10.3544835 C38.3958928,9.17293362 42.2021007,12.816612 43.3996804,14.9088387 L41.3413709,16.0670877 L42.3705256,15.4879632 L41.3443085,16.071942 C41.2346365,15.8850494 38.6113201,11.5258392 33.0405672,12.6535057 C27.9045857,13.6942793 27.6573339,18.0758195 27.6495002,18.2617413" id="Fill-10" fill="#231F20"></path>
                        <polygon id="Fill-12" fill="#231F20" points="32.8033035 25.5181758 9.27326189 6.6682324 10.7601995 4.84153886 34.5619732 23.9099282"></polygon>
                        <polygon id="Fill-14" fill="#231F20" points="34.6546559 38.4916805 22.5633118 28.9315151 22.5633118 38.0450799 20.1965497 38.0450799 20.2171132 26.4946292 20.2499169 24.1004616 36.1303326 36.6567346"></polygon>
                        <polygon id="Fill-16" fill="#878787" points="16.2838522 51.2339238 29.5850162 52.7096475 37.3790762 51.2266423 44.1488776 47.7829633 49.275067 43.5771507 51.0004434 41.710166 52.4198152 38.5766803 55.4260046 29.0723399 50.4045912 22.263137 40.2902818 32.2985438 38.1174042 29.7330175"></polygon>
                        <polygon id="Fill-18" fill="#25C5E0" points="32.3600619 44.9824863 29.3431012 43.9679262 18.5027039 34.7698956 11.8626485 28.7742825 9.27360462 28.6291373 2.90283326 30.901946 1.79876859 31.4106824 4.63751224 38.8519222 12.5294938 47.6237405 22.1086624 52.5455704 26.3711843 51.6931457 32.8031566 45.7800567"></polygon>
                        <polygon id="Fill-20" fill="#70C5A4" points="30.4403603 44.1401102 27.2016074 42.1852617 23.3949099 43.652733 20.3010808 45.4439897 14.4840554 43.2464235 5.74652194 40.6508003 11.621321 46.9473833 18.1179215 51.2143608 24.7153811 52.971637 42.3079538 49.6512587 49.7269746 41.6745836 33.2707806 46.0915606"></polygon>
                        <polygon id="Fill-22" fill="#231F20" points="33.0672508 25.2232738 31.1293848 23.7897829 49.0725164 8.02866521 50.6426873 9.78448518"></polygon>
                        <path d="M35.751964,46.9512668 C31.1305598,46.9517522 25.124546,44.1949644 16.7596037,34.5163527 C13.9619871,31.2789837 11.1731834,29.6785031 8.49552055,29.7600563 C5.07610254,29.8629686 2.89734965,32.6663582 2.87629654,32.6949989 L0.988370439,31.2789837 C1.10440739,31.126557 3.88439815,27.5508396 8.42403788,27.4144322 C11.8640194,27.3047238 15.270218,29.1862716 18.5569524,32.9886873 C31.9320471,48.4648545 38.1006106,44.8881662 43.0564166,42.0143884 C45.7115575,40.4745872 48.4562965,38.8833298 51.5961487,40.6954603 L50.4054236,42.724095 C48.5498115,41.6517681 46.9385136,42.4818627 44.2515483,44.0401105 C41.9259132,45.3881647 39.2306245,46.9507813 35.751964,46.9512668" id="Fill-24" fill="#231F20"></path>
                        <g id="Group-28" transform="translate(0.000000, 3.883483)">
                            <mask id="mask-2" fill="white">
                                <use xlink:href="#path-1"></use>
                            </mask>
                            <g id="Clip-27"></g>
                            <path d="M28.4513303,49.9999469 C12.7633303,49.9999469 0.000244803695,37.345616 0.000244803695,21.7912938 C0.000244803695,13.7087938 3.70510393,5.62823553 9.91136721,0.174853844 L11.7150808,1.72242201 C6.09291917,6.662213 2.36700693,14.4806361 2.36700693,21.7912938 C2.36700693,36.0514451 14.0681339,47.6528666 28.4513303,47.6528666 C42.834037,47.6528666 54.535164,36.0514451 54.535164,21.7912938 C54.535164,15.8694669 52.5718383,10.2981244 48.8562079,5.67872081 L50.7064342,4.21561841 C54.7598938,9.25443823 56.9024157,15.3320899 56.9024157,21.7912938 C56.9024157,37.345616 44.1393303,49.9999469 28.4513303,49.9999469" id="Fill-26" fill="#231F20" mask="url(#mask-2)"></path>
                        </g>
                        <polygon id="Fill-29" fill="#231F20" points="26.9399612 42.3405525 25.2757857 40.6716254 38.1979935 28.0041877 40.3659751 30.5634034 50.5831021 20.4265406 56.4074716 28.991078 54.4446356 30.30321 50.2266679 24.100316 40.2146864 34.0337813 38.0364231 31.4624298"></polygon>
                        <g id="Group-33" transform="translate(17.136259, 0.000000)">
                            <mask id="mask-4" fill="white">
                                <use xlink:href="#path-3"></use>
                            </mask>
                            <g id="Clip-32"></g>
                            <path d="M0.190359353,12.607632 C-0.0240886836,8.45230471 4.99732471,0.703298859 15.7681977,0.0518445045 C26.8029691,-0.622910751 33.6266273,8.15861628 33.9120684,8.53191613 L32.0251215,9.94987303 C31.9629413,9.86783444 25.649454,1.80378099 15.9126319,2.39407048 C6.82845635,2.94358339 2.38673811,9.25715667 2.55369423,12.4872441 L0.190359353,12.607632 Z" id="Fill-31" fill="#231F20" mask="url(#mask-4)"></path>
                        </g>
                        <mask id="mask-6" fill="white">
                            <use xlink:href="#path-5"></use>
                        </mask>
                        <g id="Clip-35"></g>
                        <polygon id="Fill-34" fill="#231F20" mask="url(#mask-6)" points="10.6793164 29.228553 13.0460785 29.228553 13.0460785 7.23201712 10.6793164 7.23201712"></polygon>
                        <path d="M19.3783178,46.1131139 C18.0852647,46.1131139 16.7270938,45.782047 15.3645164,44.9563213 C10.4023455,41.9480779 6.83604527,42.834483 6.80128314,42.8446772 L6.19416998,40.5762374 C6.37924157,40.5276938 10.7842393,39.428668 16.5993062,42.9539001 C21.0092,45.6276785 25.1591122,40.8024503 25.2002393,40.7529359 L27.0157035,42.259242 C25.6541053,43.8718585 22.7399621,46.1131139 19.3783178,46.1131139" id="Fill-36" fill="#231F20" mask="url(#mask-6)"></path>
                        <path d="M2.05605727,24.0547336 L0.311096536,22.468816 C4.40225589,18.0416448 10.0704406,19.7498921 12.4954661,21.2722177 L11.2298309,23.2552214 L11.8624037,22.2639623 L11.232279,23.2566777 C11.0134245,23.1212412 5.82211732,19.9790177 2.05605727,24.0547336" id="Fill-37" fill="#231F20" mask="url(#mask-6)"></path>
                        <polygon id="Fill-38" fill="#231F20" mask="url(#mask-6)" points="48.6743187 22.9363389 51.0410808 22.9363389 51.0410808 8.90676937 48.6743187 8.90676937"></polygon>
                        <path d="M60.0353155,6.52973767 L59.6064194,6.11080689 C59.1217081,5.6355656 58.6507058,5.39430419 58.2506965,5.41420704 C57.8364887,5.43362446 57.5921746,5.71808962 57.5818928,5.73022551 L56.8430753,5.14333407 C56.8935048,5.08022746 57.3566734,4.52780194 58.1801931,4.47780209 C58.733939,4.44187986 59.3033524,4.64867536 59.8673801,5.08702356 C60.4255326,4.46178272 61.3993617,3.83799818 62.5347612,4.36954998 L62.1303455,5.21857656 C61.1276296,4.74673332 60.3765718,5.96614713 60.3457266,6.01760329 L60.0353155,6.52973767 Z" id="Fill-39" fill="#231F20" mask="url(#mask-6)"></path>
                        <path d="M56.8332831,9.65856323 L56.3784379,9.21390437 C55.8839344,8.72992524 55.4408397,8.49691623 55.0839159,8.52895497 C54.7735048,8.56099371 54.6060591,8.8061386 54.5996942,8.81681818 L53.7972277,8.31827599 C53.8368859,8.25371308 54.2089875,7.68769536 54.9600453,7.59837524 C55.4893109,7.53526863 56.0523594,7.72992824 56.6296065,8.18089776 C57.0007289,7.74546218 57.673939,7.1881823 58.6340591,7.3046868 L58.519491,8.23672284 C57.6514171,8.12749986 57.1353709,9.08817659 57.1299852,9.09837074 L56.8332831,9.65856323 Z" id="Fill-40" fill="#231F20" mask="url(#mask-6)"></path>
                        
                    </g>
                </g>
            </g>
        </g>
    </g>
</svg>