<?xml version="1.0" encoding="UTF-8"?>
<svg width="54px" height="37px" viewBox="0 0 54 37" version="1.1" xmlns="http://www.w3.org/2000/svg" xmlns:xlink="http://www.w3.org/1999/xlink">
    <!-- Generator: Sketch 49.3 (51167) - http://www.bohemiancoding.com/sketch -->
    <title>Page 1</title>
    <desc>Created with Sketch.</desc>
    <defs>
        <polygon id="path-1" points="0.0003 -0.0002 53.902 -0.0002 53.902 36.0977 0.0003 36.0977"></polygon>
    </defs>
    <g id="Page-1" stroke="none" stroke-width="1" fill="none" fill-rule="evenodd">
        <g id="Main_page" transform="translate(-933.000000, -3258.000000)">
            <g id="Page-1" transform="translate(933.000000, 3258.000000)">
                <mask id="mask-2" fill="white">
                    <use xlink:href="#path-1"></use>
                </mask>
                <g id="Clip-2"></g>
                <path d="M53.9023,26.3848 C53.9023,29.0838 52.9033,31.3778 50.9083,33.2648 C48.9103,35.1548 46.4563,36.0978 43.5433,36.0978 C39.5483,36.0978 36.2303,34.6968 33.5883,31.8888 C30.9423,29.0838 29.6223,25.4698 29.6223,21.0428 C29.6223,12.9498 32.7513,7.1778 39.0103,3.7238 C43.5433,1.2418 47.2103,-0.0002 50.0173,-0.0002 C51.2043,-0.0002 51.7983,0.4328 51.7983,1.2948 C51.7983,2.0518 51.1503,2.5898 49.8553,2.9138 C40.8973,5.2888 36.4213,9.7688 36.4213,16.3498 C36.4213,19.2628 37.1733,21.7458 38.6863,23.7948 C38.9013,20.1278 41.2203,18.2918 45.6473,18.2918 C48.0193,18.2918 49.9903,19.0748 51.5553,20.6388 C53.1183,22.2038 53.9023,24.1188 53.9023,26.3848 M24.1183,26.3848 C24.1183,29.0838 23.1193,31.3778 21.1243,33.2648 C19.1263,35.1548 16.7253,36.0978 13.9213,36.0978 C9.8183,36.0978 6.4743,34.6678 3.8843,31.8078 C1.2953,28.9498 0.0003,25.3078 0.0003,20.8818 C0.0003,12.8968 3.1293,7.1778 9.3883,3.7238 C13.9213,1.2418 17.5353,-0.0002 20.2333,-0.0002 C21.4203,-0.0002 22.0133,0.4328 22.0133,1.2948 C22.0133,2.0518 21.3663,2.5898 20.0713,2.9138 C11.2213,5.2888 6.7983,9.8218 6.7983,16.5108 C6.7983,19.3188 7.5513,21.7458 9.0643,23.7948 C9.2793,20.1278 11.5463,18.2918 15.8633,18.2918 C18.2353,18.2918 20.2063,19.0748 21.7713,20.6388 C23.3343,22.2038 24.1183,24.1188 24.1183,26.3848" id="Fill-1" fill="#202828" mask="url(#mask-2)"></path>
            </g>
        </g>
    </g>
</svg>