<?xml version="1.0" encoding="UTF-8"?>
<svg width="27px" height="27px" viewBox="0 0 27 27" version="1.1" xmlns="http://www.w3.org/2000/svg" xmlns:xlink="http://www.w3.org/1999/xlink">
    <!-- Generator: Sketch 49.3 (51167) - http://www.bohemiancoding.com/sketch -->
    <title>Fill 55</title>
    <desc>Created with Sketch.</desc>
    <defs></defs>
    <g id="Page-1" stroke="none" stroke-width="1" fill="none" fill-rule="evenodd">
        <g id="Main_page" transform="translate(-1307.000000, -5104.000000)" fill="#FFFFFF">
            <g id="Group-11-Copy" transform="translate(480.000000, 5092.000000)">
                <g id="Group-10" transform="translate(827.890574, 12.000000)">
                    <path d="M12.9871658,0.528596624 C5.81124109,0.528596624 0,6.26843384 0,13.3468638 C0,20.4274593 5.81124109,26.1672965 12.9871658,26.1672965 C20.1572397,26.1672965 25.9757942,20.4274593 25.9757942,13.3468638 C25.9757942,6.26843384 20.1572397,0.528596624 12.9871658,0.528596624 Z M18.4239599,21.1446863 C18.4239599,21.1446863 17.152888,22.0555127 14.3445359,22.0555127 C11.5347212,22.0555127 9.80436673,20.423417 9.80436673,18.8279911 L9.80436673,11.7250184 L7.37923767,11.7250184 L7.37923767,9.25745718 C7.37923767,9.25745718 9.1110548,9.02935358 9.99597825,7.81289731 C10.8809017,6.59846221 11.0725132,5.30664513 11.1120057,4.69942758 L13.651224,4.69942758 L13.651224,8.64821846 L17.730648,8.64821846 L17.730648,11.7637094 L13.6892538,11.7637094 L13.6892538,17.8724103 C13.6892538,18.9869418 15.0378479,19.2844871 15.7691896,19.2844871 C16.4990686,19.2844871 17.6545884,18.8666821 18.4239599,18.4490215 L18.4239599,21.1446863 L18.4239599,21.1446863 Z" id="Fill-55"></path>
                </g>
            </g>
        </g>
    </g>
</svg>