<?xml version="1.0" encoding="UTF-8"?>
<svg width="27px" height="27px" viewBox="0 0 27 27" version="1.1" xmlns="http://www.w3.org/2000/svg" xmlns:xlink="http://www.w3.org/1999/xlink">
    <!-- Generator: Sketch 49.3 (51167) - http://www.bohemiancoding.com/sketch -->
    <title>Fill 49</title>
    <desc>Created with Sketch.</desc>
    <defs></defs>
    <g id="Page-1" stroke="none" stroke-width="1" fill="none" fill-rule="evenodd">
        <g id="Main_page" transform="translate(-713.000000, -5104.000000)" fill="#FFFFFF">
            <g id="Group-11-Copy" transform="translate(480.000000, 5092.000000)">
                <g id="Group-7" transform="translate(233.969075, 12.000000)">
                    <path d="M12.8555161,0.528596624 C5.75483991,0.528596624 0,6.26843384 0,13.3470082 C0,20.4274593 5.75483991,26.1672965 12.8555161,26.1672965 C19.9540206,26.1672965 25.7108874,20.4274593 25.7108874,13.3470082 C25.7108874,6.26843384 19.9540206,0.528596624 12.8555161,0.528596624 Z M20.8403384,9.4246369 C20.5033002,9.71193194 19.9213013,9.99922698 19.9213013,9.99922698 C19.9213013,9.99922698 20.2603663,11.9206389 19.3435009,14.1293458 C18.4244638,16.3400739 17.3114271,17.7787146 14.4584743,19.314949 C11.6056662,20.853349 9.72068467,20.5884312 8.41379311,20.3235134 C7.10878362,20.05874 6.28587771,19.6999821 5.27085425,18.9319371 C5.27085425,18.9319371 6.97805103,18.8340546 7.73566304,18.5467596 C8.68133887,18.1921884 9.91265745,17.3466171 9.91265745,17.3466171 C9.91265745,17.3466171 9.14071263,17.201959 8.17274132,16.6273689 C7.20477001,16.0507577 6.86773184,15.0889689 6.86773184,15.0889689 L8.36674096,14.946332 C8.36674096,14.946332 7.34983541,14.6102401 6.38389096,13.6504726 C5.41577487,12.6888282 5.60977451,11.5844026 5.60977451,11.5844026 C5.60977451,11.5844026 5.94883954,11.7759808 6.28587771,11.8738632 C6.62479797,11.9694357 7.15771786,11.8738632 7.15771786,11.8738632 C7.15771786,11.8738632 5.89976053,11.1524495 5.70576089,9.6650119 C5.51378812,8.17555316 6.09376016,7.40736376 6.09376016,7.40736376 C6.09376016,7.40736376 7.60912895,9.05577318 9.09163362,9.85659004 C10.7826155,10.7694375 13.2006617,10.9120745 13.2006617,10.9120745 C13.2006617,10.9120745 12.9881308,7.56631444 15.6674974,6.83075252 C17.9404781,6.2073656 19.0044358,7.74360002 19.0044358,7.74360002 C19.0044358,7.74360002 19.4393425,7.74360002 19.9213013,7.59894191 C20.4052869,7.45428381 21.083417,7.11804756 21.083417,7.11804756 C21.083417,7.11804756 21.083417,7.35842255 20.9383516,7.64788313 C20.793431,7.93517816 20.5033002,8.22449437 20.3583796,8.3671313 C20.2114321,8.51178941 19.7293285,8.79908444 19.7293285,8.79908444 C19.7293285,8.79908444 20.0663667,8.8968225 20.4543659,8.84802566 C20.8403384,8.79908444 21.4692446,8.65644751 21.4692446,8.65644751 C21.4692446,8.65644751 21.1792586,9.1353207 20.8403384,9.4246369 L20.8403384,9.4246369 Z" id="Fill-49"></path>
                </g>
            </g>
        </g>
    </g>
</svg>