<?xml version="1.0" encoding="UTF-8"?>
<svg width="25px" height="17px" viewBox="0 0 25 17" version="1.1" xmlns="http://www.w3.org/2000/svg" xmlns:xlink="http://www.w3.org/1999/xlink">
    <!-- Generator: Sketch 49.3 (51167) - http://www.bohemiancoding.com/sketch -->
    <title>ic-remove-red-eye-24px copy</title>
    <desc>Created with Sketch.</desc>
    <defs></defs>
    <g id="Page-1" stroke="none" stroke-width="1" fill="none" fill-rule="evenodd">
        <g id="Afisha" transform="translate(-426.000000, -748.000000)">
            <g id="ic-remove-red-eye-24px-copy" transform="translate(425.000000, 743.000000)">
                <polygon id="Shape" points="0 0 27 0 27 27 0 27"></polygon>
                <path d="M13.5,5.0625 C7.875,5.0625 3.07125,8.56125 1.125,13.5 C3.07125,18.43875 7.875,21.9375 13.5,21.9375 C19.125,21.9375 23.92875,18.43875 25.875,13.5 C23.92875,8.56125 19.125,5.0625 13.5,5.0625 Z M13.5,19.125 C10.395,19.125 7.875,16.605 7.875,13.5 C7.875,10.395 10.395,7.875 13.5,7.875 C16.605,7.875 19.125,10.395 19.125,13.5 C19.125,16.605 16.605,19.125 13.5,19.125 Z M13.5,10.125 C11.6325,10.125 10.125,11.6325 10.125,13.5 C10.125,15.3675 11.6325,16.875 13.5,16.875 C15.3675,16.875 16.875,15.3675 16.875,13.5 C16.875,11.6325 15.3675,10.125 13.5,10.125 Z" id="Shape" fill="#FFFFFF" fill-rule="nonzero"></path>
            </g>
        </g>
    </g>
</svg>