<?xml version="1.0" encoding="UTF-8"?>
<svg width="27px" height="27px" viewBox="0 0 27 27" version="1.1" xmlns="http://www.w3.org/2000/svg" xmlns:xlink="http://www.w3.org/1999/xlink">
    <!-- Generator: Sketch 49.3 (51167) - http://www.bohemiancoding.com/sketch -->
    <title>Fill 15</title>
    <desc>Created with Sketch.</desc>
    <defs></defs>
    <g id="Page-1" stroke="none" stroke-width="1" fill="none" fill-rule="evenodd">
        <g id="Main_page" transform="translate(-1098.000000, -5104.000000)" fill="#000000">
            <g id="Group-11-Copy" transform="translate(480.000000, 5092.000000)">
                <g id="Group-9" transform="translate(618.775356, 12.000000)">
                    <path d="M19.229007,19.5739105 C18.8102256,19.5739105 18.3893806,19.5724668 17.9705992,19.5739105 C17.4361039,19.5753542 16.9698577,19.3602427 16.5923501,18.9502313 C16.1754851,18.4940216 15.7938501,17.9930571 15.3915783,17.5180792 C15.2698206,17.3751527 15.1398083,17.2365573 15.0015411,17.1167301 C14.6797531,16.8395393 14.3578177,16.8958437 14.2052522,17.3188483 C14.070965,17.6913234 14.0298387,18.1085532 13.9512711,18.5084586 C13.9431638,18.550326 13.9493548,18.5979681 13.9493548,18.6441666 C13.9452275,19.1913295 13.7140943,19.498838 13.2334023,19.5277121 C11.9748472,19.605672 10.7555021,19.4454211 9.61855716,18.7567753 C8.65510946,18.1735198 7.88756475,17.3491661 7.22114078,16.3876607 C6.10910751,14.7808206 5.24250575,13.0093985 4.4482805,11.1874469 C4.2336569,10.6937009 4.03347912,10.1912926 3.82519399,9.69321553 L3.78598391,9.589269 C3.60437933,9.08830448 3.75488118,8.80245153 4.22952953,8.75480937 C4.35128715,8.74181605 4.47510845,8.75047827 4.59671867,8.74759086 C5.2528242,8.73748495 5.91099341,8.73171014 6.56724635,8.72016053 C7.02921775,8.71149832 7.34496209,8.91939137 7.52450299,9.4261307 C7.98249442,10.7240186 8.57462561,11.9425029 9.32153343,13.0613718 C9.45773687,13.2649337 9.62283195,13.4569461 9.80222544,13.6143096 C10.0374859,13.8178715 10.2417911,13.7456864 10.3449755,13.428072 C10.4170572,13.2028546 10.4624583,12.9574253 10.4851589,12.7177708 C10.5656428,11.8255631 10.5697701,10.9319117 10.4376941,10.0440351 C10.3635487,9.55317646 10.0952692,9.28464792 9.67221306,9.1879199 C9.42471785,9.13161554 9.39582621,9.0233379 9.56298498,8.80533893 C9.78571593,8.50938007 10.0827397,8.3751158 10.4129298,8.32602994 C11.28985,8.19465308 12.1707502,8.18165976 13.043543,8.31159292 C13.8502978,8.42997647 13.9534822,8.77213379 13.9782465,9.62824895 C13.994756,10.19418 13.9493548,10.7615548 13.9431638,11.3274859 C13.9369727,11.8775363 13.9328453,12.4275867 13.9555459,12.9776371 C13.961737,13.1595435 14.0257113,13.3529995 14.1060477,13.5146941 C14.213507,13.7254746 14.3681362,13.7586797 14.5332313,13.6042037 C14.7396001,13.4078602 14.9375668,13.1941923 15.1005982,12.9559816 C15.8433786,11.8616556 16.4190003,10.6619394 16.8646096,9.37993224 C17.0482779,8.85009369 17.1782903,8.75480937 17.6858102,8.75192197 C18.5730489,8.75192197 19.4601401,8.74470346 20.3473787,8.74614716 C20.5083464,8.74614716 20.6755052,8.76058418 20.8280707,8.81111374 C21.0839681,8.89629215 21.2138331,9.13883404 21.1209671,9.41891219 C20.9704652,9.87223455 20.8240908,10.3457687 20.5866192,10.7427867 C19.9987628,11.7331661 19.3590194,12.6845656 18.7421239,13.6547332 C18.6205137,13.8467456 18.5070108,14.0459764 18.4017627,14.250982 C18.2469861,14.5498283 18.2779414,14.8385687 18.4739918,15.0998787 C18.6060679,15.2731229 18.748315,15.4391486 18.8927732,15.5979558 C19.5695156,16.3400185 20.2751496,17.0474324 20.8075813,17.9381964 C20.918873,18.1186591 21.0179301,18.3150026 21.0922229,18.5185645 C21.23049,18.9011455 21.0984139,19.2461902 20.7537779,19.3891167 C20.5599386,19.4656329 20.3494424,19.498838 20.1430736,19.5291558 C19.990508,19.5508113 19.8314566,19.5349306 19.6768274,19.537818 L19.229007,19.537818 L19.229007,19.5739105 Z M12.9878234,0.528596624 C5.81193637,0.528596624 0,6.2687549 0,13.3472247 C0,20.4271383 5.81193637,26.1672965 12.9878234,26.1672965 C20.1595831,26.1672965 25.9757942,20.4271383 25.9757942,13.3472247 C25.9757942,6.2687549 20.1595831,0.528596624 12.9878234,0.528596624 L12.9878234,0.528596624 Z" id="Fill-15"></path>
                </g>
            </g>
        </g>
    </g>
</svg>